<?xml version="1.0" standalone="no"?>
<!DOCTYPE svg PUBLIC "-//W3C//DTD SVG 20010904//EN"
 "http://www.w3.org/TR/2001/REC-SVG-20010904/DTD/svg10.dtd">
<svg version="1.0" xmlns="http://www.w3.org/2000/svg"
 width="256.000000pt" height="256.000000pt" viewBox="0 0 256.000000 256.000000"
 preserveAspectRatio="xMidYMid meet">

<g transform="translate(0.000000,256.000000) scale(0.100000,-0.100000)"
fill="#ffffff" stroke="none">
<path d="M520 2420 c-8 -5 -25 -10 -38 -10 -55 0 -144 -70 -163 -127 -7 -23
-18 -35 -37 -39 -103 -23 -170 -65 -216 -137 -30 -47 -57 -130 -57 -177 -1
-34 25 -117 47 -155 16 -28 20 -45 14 -55 -15 -23 -12 -98 7 -156 50 -160 264
-216 402 -106 l24 20 24 -28 23 -28 0 -426 c0 -277 3 -426 10 -426 6 0 10 128
10 363 l0 362 66 72 65 72 57 -2 c46 -1 68 5 112 28 45 25 60 40 83 85 24 46
28 63 23 104 -3 27 -14 67 -25 90 -17 33 -18 43 -7 56 84 100 56 272 -58 348
-26 17 -61 32 -77 32 -23 0 -29 4 -29 23 -1 86 -116 211 -192 209 -15 0 -30 4
-33 9 -8 11 -16 11 -35 -1z m80 -674 c0 -16 -18 -31 -27 -22 -8 8 5 36 17 36
5 0 10 -6 10 -14z m33 -250 c20 -21 37 -41 37 -44 0 -6 -82 -96 -92 -100 -4
-2 -8 47 -7 110 0 92 2 109 12 93 7 -11 29 -37 50 -59z m-87 -2 c-4 -12 -10
-14 -17 -7 -5 5 -7 17 -3 27 4 12 10 14 17 7 5 -5 7 -17 3 -27z"/>
<path d="M1587 1724 c-4 -4 -7 -49 -7 -101 0 -51 -3 -93 -7 -93 -5 0 -39 23
-78 50 -138 99 -200 140 -213 140 -13 0 -59 -31 -262 -175 -58 -41 -148 -104
-200 -140 -52 -36 -108 -76 -124 -89 l-29 -24 44 -66 c24 -36 46 -66 49 -66 3
0 16 7 28 16 l22 15 0 -289 c0 -234 3 -292 14 -301 9 -8 64 -11 172 -9 l159 3
3 223 2 222 125 0 125 0 2 -222 3 -223 165 0 165 0 5 300 c6 330 0 310 55 220
8 -13 28 -31 44 -40 18 -9 32 -26 36 -43 7 -33 55 -86 99 -110 17 -9 56 -19
86 -22 l55 -5 -4 -130 c-2 -71 -8 -136 -13 -143 -8 -9 5 -12 61 -12 l71 0 -14
22 c-9 16 -15 65 -18 155 -5 152 -4 154 87 150 108 -5 185 69 201 194 4 30 15
65 24 79 31 45 41 111 26 168 -7 28 -20 62 -29 75 -19 29 -92 67 -130 67 -20
0 -27 5 -27 20 0 11 -19 41 -41 65 -37 40 -47 45 -84 45 -29 0 -54 -8 -79 -25
-39 -27 -61 -31 -71 -15 -9 15 -87 12 -126 -4 -53 -22 -89 -76 -89 -135 0 -15
-9 -36 -20 -46 -11 -10 -20 -26 -20 -36 0 -29 -18 -32 -48 -9 l-27 22 -5 161
-5 162 -75 3 c-42 1 -79 0 -83 -4z"/>
</g>
</svg>
